solid OpenSCAD_Model
  facet normal -1 0 0
    outer loop
      vertex -1 0 0
      vertex -1 0 3
      vertex -1 19.05 0
    endloop
  endfacet
  facet normal -1 0 0
    outer loop
      vertex -1 19.05 0
      vertex -1 0 3
      vertex -1 19.05 3
    endloop
  endfacet
  facet normal 0 -1 0
    outer loop
      vertex -1 0 3
      vertex -1 0 0
      vertex 53.15 0 0
    endloop
  endfacet
  facet normal 0 -1 0
    outer loop
      vertex 53.15 0 3
      vertex -1 0 3
      vertex 53.15 0 0
    endloop
  endfacet
  facet normal 0 0 -1
    outer loop
      vertex 21.575 6.525 0
      vertex 20.575 12.525 0
      vertex 21.575 12.525 0
    endloop
  endfacet
  facet normal 0 0 -1
    outer loop
      vertex 16.525 16.525 0
      vertex -1 19.05 0
      vertex 19.05 19.05 0
    endloop
  endfacet
  facet normal 0 0 -1
    outer loop
      vertex 19.05 19.05 0
      vertex 15.05 19.05 0
      vertex 15.05 23.05 0
    endloop
  endfacet
  facet normal 0 0 -1
    outer loop
      vertex 21.575 16.525 0
      vertex 23.05 19.05 0
      vertex 35.575 16.525 0
    endloop
  endfacet
  facet normal 0 0 -1
    outer loop
      vertex 17.05 23.05 0
      vertex 15.05 23.05 0
      vertex 15.5859 25.05 0
    endloop
  endfacet
  facet normal 0 0 -1
    outer loop
      vertex 18.05 24.7821 0
      vertex 15.5859 25.05 0
      vertex 17.05 26.5141 0
    endloop
  endfacet
  facet normal 0 0 -1
    outer loop
      vertex 20.05 24.7821 0
      vertex 17.05 26.5141 0
      vertex 19.05 27.05 0
    endloop
  endfacet
  facet normal 0 0 -1
    outer loop
      vertex 22.5141 25.05 0
      vertex 19.05 27.05 0
      vertex 21.05 26.5141 0
    endloop
  endfacet
  facet normal 0 0 -1
    outer loop
      vertex 19.05 25.05 0
      vertex 17.05 26.5141 0
      vertex 20.05 24.7821 0
    endloop
  endfacet
  facet normal 0 0 -1
    outer loop
      vertex 20.7821 24.05 0
      vertex 20.05 24.7821 0
      vertex 23.05 23.05 0
    endloop
  endfacet
  facet normal 0 0 -1
    outer loop
      vertex 35.575 16.525 0
      vertex 36.575 15.525 0
      vertex 35.575 15.525 0
    endloop
  endfacet
  facet normal 0 0 -1
    outer loop
      vertex 53.6859 -6 0
      vertex 59.15 -7.4641 0
      vertex 55.15 -7.4641 0
    endloop
  endfacet
  facet normal 0 0 -1
    outer loop
      vertex 74.675 3.525 0
      vertex 77.2 19.05 0
      vertex 77.2 0 0
    endloop
  endfacet
  facet normal 0 0 -1
    outer loop
      vertex 59.675 6.525 0
      vertex 58.675 6.525 0
      vertex 59.675 12.525 0
    endloop
  endfacet
  facet normal 0 0 -1
    outer loop
      vertex 58.15 -2.26795 0
      vertex 57.15 -2 0
      vertex 53.15 0 0
    endloop
  endfacet
  facet normal 0 0 -1
    outer loop
      vertex 58.8821 -5 0
      vertex 60.6141 -6 0
      vertex 58.15 -5.73205 0
    endloop
  endfacet
  facet normal 0 0 -1
    outer loop
      vertex 59.15 -7.4641 0
      vertex 57.15 -8 0
      vertex 55.15 -7.4641 0
    endloop
  endfacet
  facet normal 0 0 -1
    outer loop
      vertex 60.6141 -6 0
      vertex 59.15 -7.4641 0
      vertex 57.15 -6 0
    endloop
  endfacet
  facet normal 0 0 -1
    outer loop
      vertex 17.525 6.525 0
      vertex 20.575 3.525 0
      vertex 17.525 3.525 0
    endloop
  endfacet
  facet normal 0 0 -1
    outer loop
      vertex 58.8821 -3 0
      vertex 61.15 -4 0
      vertex 59.15 -4 0
    endloop
  endfacet
  facet normal 0 0 -1
    outer loop
      vertex 23.05 19.05 0
      vertex 20.7821 24.05 0
      vertex 23.05 23.05 0
    endloop
  endfacet
  facet normal 0 0 -1
    outer loop
      vertex -1 0 0
      vertex -1 19.05 0
      vertex 1.525 6.525 0
    endloop
  endfacet
  facet normal 0 0 -1
    outer loop
      vertex 55.4179 -5 0
      vertex 53.15 -4 0
      vertex 55.15 -4 0
    endloop
  endfacet
  facet normal 0 0 -1
    outer loop
      vertex -1 0 0
      vertex 1.525 6.525 0
      vertex 1.525 3.525 0
    endloop
  endfacet
  facet normal 0 0 -1
    outer loop
      vertex 21.575 2.525 0
      vertex 53.15 0 0
      vertex 16.525 2.525 0
    endloop
  endfacet
  facet normal 0 0 -1
    outer loop
      vertex 21.575 2.525 0
      vertex 17.525 3.525 0
      vertex 20.575 3.525 0
    endloop
  endfacet
  facet normal 0 0 -1
    outer loop
      vertex -1 0 0
      vertex 1.525 3.525 0
      vertex 2.525 2.525 0
    endloop
  endfacet
  facet normal 0 0 -1
    outer loop
      vertex -1 0 0
      vertex 2.525 2.525 0
      vertex 53.15 0 0
    endloop
  endfacet
  facet normal 0 0 -1
    outer loop
      vertex 16.525 3.525 0
      vertex 21.575 2.525 0
      vertex 16.525 2.525 0
    endloop
  endfacet
  facet normal 0 0 -1
    outer loop
      vertex 35.575 2.525 0
      vertex 53.15 0 0
      vertex 21.575 2.525 0
    endloop
  endfacet
  facet normal 0 0 -1
    outer loop
      vertex 1.525 15.525 0
      vertex 2.525 16.525 0
      vertex 2.525 15.525 0
    endloop
  endfacet
  facet normal 0 0 -1
    outer loop
      vertex 16.525 12.525 0
      vertex 17.525 6.525 0
      vertex 16.525 6.525 0
    endloop
  endfacet
  facet normal 0 0 -1
    outer loop
      vertex 35.575 12.525 0
      vertex 40.625 6.525 0
      vertex 39.625 6.525 0
    endloop
  endfacet
  facet normal 0 0 -1
    outer loop
      vertex 21.575 16.525 0
      vertex 17.525 15.525 0
      vertex 19.05 19.05 0
    endloop
  endfacet
  facet normal 0 0 -1
    outer loop
      vertex 16.525 16.525 0
      vertex 17.525 15.525 0
      vertex 16.525 15.525 0
    endloop
  endfacet
  facet normal 0 0 -1
    outer loop
      vertex 2.525 16.525 0
      vertex -1 19.05 0
      vertex 16.525 16.525 0
    endloop
  endfacet
  facet normal 0 0 -1
    outer loop
      vertex 17.525 15.525 0
      vertex 16.525 16.525 0
      vertex 19.05 19.05 0
    endloop
  endfacet
  facet normal 0 0 -1
    outer loop
      vertex 1.525 15.525 0
      vertex -1 19.05 0
      vertex 2.525 16.525 0
    endloop
  endfacet
  facet normal 0 0 -1
    outer loop
      vertex 1.525 12.525 0
      vertex -1 19.05 0
      vertex 1.525 15.525 0
    endloop
  endfacet
  facet normal 0 0 -1
    outer loop
      vertex 2.525 12.525 0
      vertex 1.525 6.525 0
      vertex 1.525 12.525 0
    endloop
  endfacet
  facet normal 0 0 -1
    outer loop
      vertex 1.525 6.525 0
      vertex -1 19.05 0
      vertex 1.525 12.525 0
    endloop
  endfacet
  facet normal 0 0 -1
    outer loop
      vertex 17.05 23.05 0
      vertex 15.5859 25.05 0
      vertex 17.3179 24.05 0
    endloop
  endfacet
  facet normal 0 0 -1
    outer loop
      vertex 1.525 6.525 0
      vertex 2.525 12.525 0
      vertex 2.525 6.525 0
    endloop
  endfacet
  facet normal 0 0 -1
    outer loop
      vertex 17.3179 22.05 0
      vertex 15.05 23.05 0
      vertex 17.05 23.05 0
    endloop
  endfacet
  facet normal 0 0 -1
    outer loop
      vertex 18.05 21.3179 0
      vertex 15.05 23.05 0
      vertex 17.3179 22.05 0
    endloop
  endfacet
  facet normal 0 0 -1
    outer loop
      vertex 36.575 15.525 0
      vertex 39.625 12.525 0
      vertex 36.575 12.525 0
    endloop
  endfacet
  facet normal 0 0 -1
    outer loop
      vertex 20.05 21.3179 0
      vertex 23.05 19.05 0
      vertex 19.05 21.05 0
    endloop
  endfacet
  facet normal 0 0 -1
    outer loop
      vertex 18.05 21.3179 0
      vertex 19.05 21.05 0
      vertex 23.05 19.05 0
    endloop
  endfacet
  facet normal 0 0 -1
    outer loop
      vertex 20.7821 22.05 0
      vertex 23.05 19.05 0
      vertex 20.05 21.3179 0
    endloop
  endfacet
  facet normal 0 0 -1
    outer loop
      vertex 40.625 2.525 0
      vertex 36.575 3.525 0
      vertex 39.625 3.525 0
    endloop
  endfacet
  facet normal 0 0 -1
    outer loop
      vertex 18.05 24.7821 0
      vertex 17.05 26.5141 0
      vertex 19.05 25.05 0
    endloop
  endfacet
  facet normal 0 0 -1
    outer loop
      vertex 23.05 23.05 0
      vertex 20.05 24.7821 0
      vertex 19.05 27.05 0
    endloop
  endfacet
  facet normal 0 0 -1
    outer loop
      vertex 17.3179 24.05 0
      vertex 15.5859 25.05 0
      vertex 18.05 24.7821 0
    endloop
  endfacet
  facet normal 0 0 -1
    outer loop
      vertex 20.575 3.525 0
      vertex 17.525 6.525 0
      vertex 20.575 6.525 0
    endloop
  endfacet
  facet normal 0 0 -1
    outer loop
      vertex 21.575 16.525 0
      vertex 18.05 21.3179 0
      vertex 23.05 19.05 0
    endloop
  endfacet
  facet normal 0 0 -1
    outer loop
      vertex 17.525 6.525 0
      vertex 16.525 12.525 0
      vertex 20.575 6.525 0
    endloop
  endfacet
  facet normal 0 0 -1
    outer loop
      vertex 36.575 6.525 0
      vertex 39.625 3.525 0
      vertex 36.575 3.525 0
    endloop
  endfacet
  facet normal 0 0 -1
    outer loop
      vertex 17.525 15.525 0
      vertex 20.575 12.525 0
      vertex 17.525 12.525 0
    endloop
  endfacet
  facet normal 0 0 -1
    outer loop
      vertex 21.575 2.525 0
      vertex 20.575 3.525 0
      vertex 21.575 3.525 0
    endloop
  endfacet
  facet normal 0 0 -1
    outer loop
      vertex 35.575 3.525 0
      vertex 53.15 0 0
      vertex 35.575 2.525 0
    endloop
  endfacet
  facet normal 0 0 -1
    outer loop
      vertex 21.575 6.525 0
      vertex 16.525 12.525 0
      vertex 17.525 12.525 0
    endloop
  endfacet
  facet normal 0 0 -1
    outer loop
      vertex 39.625 3.525 0
      vertex 36.575 6.525 0
      vertex 39.625 6.525 0
    endloop
  endfacet
  facet normal 0 0 -1
    outer loop
      vertex 40.625 2.525 0
      vertex 39.625 3.525 0
      vertex 40.625 3.525 0
    endloop
  endfacet
  facet normal 0 0 -1
    outer loop
      vertex 54.625 2.525 0
      vertex 53.15 0 0
      vertex 40.625 2.525 0
    endloop
  endfacet
  facet normal 0 0 -1
    outer loop
      vertex 40.625 6.525 0
      vertex 39.625 12.525 0
      vertex 40.625 12.525 0
    endloop
  endfacet
  facet normal 0 0 -1
    outer loop
      vertex 40.625 6.525 0
      vertex 36.575 12.525 0
      vertex 39.625 12.525 0
    endloop
  endfacet
  facet normal 0 0 -1
    outer loop
      vertex 21.575 6.525 0
      vertex 17.525 12.525 0
      vertex 20.575 12.525 0
    endloop
  endfacet
  facet normal 0 0 -1
    outer loop
      vertex 77.2 19.05 0
      vertex 35.575 16.525 0
      vertex 23.05 19.05 0
    endloop
  endfacet
  facet normal 0 0 -1
    outer loop
      vertex 53.15 -4 0
      vertex 55.4179 -5 0
      vertex 56.15 -5.73205 0
    endloop
  endfacet
  facet normal 0 0 -1
    outer loop
      vertex 40.625 15.525 0
      vertex 39.625 15.525 0
      vertex 40.625 16.525 0
    endloop
  endfacet
  facet normal 0 0 -1
    outer loop
      vertex 53.15 -4 0
      vertex 56.15 -5.73205 0
      vertex 53.6859 -6 0
    endloop
  endfacet
  facet normal 0 0 -1
    outer loop
      vertex 21.575 16.525 0
      vertex 19.05 19.05 0
      vertex 15.05 23.05 0
    endloop
  endfacet
  facet normal 0 0 -1
    outer loop
      vertex 40.625 16.525 0
      vertex 35.575 16.525 0
      vertex 77.2 19.05 0
    endloop
  endfacet
  facet normal 0 0 -1
    outer loop
      vertex 20.575 15.525 0
      vertex 17.525 15.525 0
      vertex 21.575 16.525 0
    endloop
  endfacet
  facet normal 0 0 -1
    outer loop
      vertex 21.575 15.525 0
      vertex 20.575 15.525 0
      vertex 21.575 16.525 0
    endloop
  endfacet
  facet normal 0 0 -1
    outer loop
      vertex 20.575 6.525 0
      vertex 16.525 12.525 0
      vertex 21.575 6.525 0
    endloop
  endfacet
  facet normal 0 0 -1
    outer loop
      vertex 35.575 12.525 0
      vertex 36.575 6.525 0
      vertex 35.575 6.525 0
    endloop
  endfacet
  facet normal 0 0 -1
    outer loop
      vertex 35.575 12.525 0
      vertex 39.625 6.525 0
      vertex 36.575 6.525 0
    endloop
  endfacet
  facet normal 0 0 -1
    outer loop
      vertex 40.625 6.525 0
      vertex 35.575 12.525 0
      vertex 36.575 12.525 0
    endloop
  endfacet
  facet normal 0 0 -1
    outer loop
      vertex 35.575 3.525 0
      vertex 36.575 3.525 0
      vertex 40.625 2.525 0
    endloop
  endfacet
  facet normal 0 0 -1
    outer loop
      vertex 35.575 3.525 0
      vertex 40.625 2.525 0
      vertex 53.15 0 0
    endloop
  endfacet
  facet normal 0 0 -1
    outer loop
      vertex 55.625 15.525 0
      vertex 58.675 15.525 0
      vertex 55.625 12.525 0
    endloop
  endfacet
  facet normal 0 0 -1
    outer loop
      vertex 54.625 2.525 0
      vertex 54.625 3.525 0
      vertex 55.625 3.525 0
    endloop
  endfacet
  facet normal 0 0 -1
    outer loop
      vertex 73.675 15.525 0
      vertex 77.2 19.05 0
      vertex 74.675 15.525 0
    endloop
  endfacet
  facet normal 0 0 -1
    outer loop
      vertex 59.675 16.525 0
      vertex 77.2 19.05 0
      vertex 73.675 16.525 0
    endloop
  endfacet
  facet normal 0 0 -1
    outer loop
      vertex 55.625 6.525 0
      vertex 54.625 12.525 0
      vertex 55.625 12.525 0
    endloop
  endfacet
  facet normal 0 0 -1
    outer loop
      vertex 59.675 15.525 0
      vertex 58.675 15.525 0
      vertex 59.675 16.525 0
    endloop
  endfacet
  facet normal 0 0 -1
    outer loop
      vertex 58.675 15.525 0
      vertex 55.625 15.525 0
      vertex 59.675 16.525 0
    endloop
  endfacet
  facet normal 0 0 -1
    outer loop
      vertex 59.675 16.525 0
      vertex 54.625 16.525 0
      vertex 77.2 19.05 0
    endloop
  endfacet
  facet normal 0 0 -1
    outer loop
      vertex 36.575 15.525 0
      vertex 35.575 16.525 0
      vertex 40.625 16.525 0
    endloop
  endfacet
  facet normal 0 0 -1
    outer loop
      vertex 39.625 15.525 0
      vertex 36.575 15.525 0
      vertex 40.625 16.525 0
    endloop
  endfacet
  facet normal 0 0 -1
    outer loop
      vertex 39.625 12.525 0
      vertex 36.575 15.525 0
      vertex 39.625 15.525 0
    endloop
  endfacet
  facet normal 0 0 -1
    outer loop
      vertex 21.575 16.525 0
      vertex 15.05 23.05 0
      vertex 18.05 21.3179 0
    endloop
  endfacet
  facet normal 0 0 -1
    outer loop
      vertex 23.05 19.05 0
      vertex 21.05 23.05 0
      vertex 20.7821 24.05 0
    endloop
  endfacet
  facet normal 0 0 -1
    outer loop
      vertex 58.15 -5.73205 0
      vertex 60.6141 -6 0
      vertex 57.15 -6 0
    endloop
  endfacet
  facet normal 0 0 -1
    outer loop
      vertex 2.525 2.525 0
      vertex 1.525 3.525 0
      vertex 2.525 3.525 0
    endloop
  endfacet
  facet normal 0 0 -1
    outer loop
      vertex 57.15 -6 0
      vertex 53.6859 -6 0
      vertex 56.15 -5.73205 0
    endloop
  endfacet
  facet normal 0 0 -1
    outer loop
      vertex 21.575 2.525 0
      vertex 16.525 3.525 0
      vertex 17.525 3.525 0
    endloop
  endfacet
  facet normal 0 0 -1
    outer loop
      vertex 59.15 -7.4641 0
      vertex 53.6859 -6 0
      vertex 57.15 -6 0
    endloop
  endfacet
  facet normal 0 0 -1
    outer loop
      vertex 58.675 3.525 0
      vertex 55.625 3.525 0
      vertex 58.675 6.525 0
    endloop
  endfacet
  facet normal 0 0 -1
    outer loop
      vertex 16.525 2.525 0
      vertex 53.15 0 0
      vertex 2.525 2.525 0
    endloop
  endfacet
  facet normal 0 0 -1
    outer loop
      vertex 61.15 -4 0
      vertex 60.6141 -6 0
      vertex 58.8821 -5 0
    endloop
  endfacet
  facet normal 0 0 -1
    outer loop
      vertex 61.15 -4 0
      vertex 58.8821 -5 0
      vertex 59.15 -4 0
    endloop
  endfacet
  facet normal 0 0 -1
    outer loop
      vertex 61.15 0 0
      vertex 61.15 -4 0
      vertex 58.15 -2.26795 0
    endloop
  endfacet
  facet normal 0 0 -1
    outer loop
      vertex 61.15 0 0
      vertex 58.15 -2.26795 0
      vertex 53.15 0 0
    endloop
  endfacet
  facet normal 0 0 -1
    outer loop
      vertex 56.15 -2.26795 0
      vertex 53.15 0 0
      vertex 57.15 -2 0
    endloop
  endfacet
  facet normal 0 0 -1
    outer loop
      vertex 58.675 3.525 0
      vertex 54.625 2.525 0
      vertex 55.625 3.525 0
    endloop
  endfacet
  facet normal 0 0 -1
    outer loop
      vertex 58.675 3.525 0
      vertex 53.15 0 0
      vertex 54.625 2.525 0
    endloop
  endfacet
  facet normal 0 0 -1
    outer loop
      vertex 23.05 23.05 0
      vertex 19.05 27.05 0
      vertex 22.5141 25.05 0
    endloop
  endfacet
  facet normal 0 0 -1
    outer loop
      vertex 58.15 -2.26795 0
      vertex 61.15 -4 0
      vertex 58.8821 -3 0
    endloop
  endfacet
  facet normal 0 0 -1
    outer loop
      vertex 23.05 19.05 0
      vertex 20.7821 22.05 0
      vertex 21.05 23.05 0
    endloop
  endfacet
  facet normal 0 0 -1
    outer loop
      vertex 54.625 12.525 0
      vertex 55.625 6.525 0
      vertex 54.625 6.525 0
    endloop
  endfacet
  facet normal 0 0 -1
    outer loop
      vertex 73.675 2.525 0
      vertex 61.15 0 0
      vertex 59.675 2.525 0
    endloop
  endfacet
  facet normal 0 0 -1
    outer loop
      vertex 53.15 0 0
      vertex 58.675 3.525 0
      vertex 61.15 0 0
    endloop
  endfacet
  facet normal 0 0 -1
    outer loop
      vertex 58.675 3.525 0
      vertex 59.675 3.525 0
      vertex 59.675 2.525 0
    endloop
  endfacet
  facet normal 0 0 -1
    outer loop
      vertex 58.675 3.525 0
      vertex 59.675 2.525 0
      vertex 61.15 0 0
    endloop
  endfacet
  facet normal 0 0 -1
    outer loop
      vertex 61.15 0 0
      vertex 73.675 2.525 0
      vertex 77.2 0 0
    endloop
  endfacet
  facet normal 0 0 -1
    outer loop
      vertex 74.675 15.525 0
      vertex 77.2 19.05 0
      vertex 74.675 12.525 0
    endloop
  endfacet
  facet normal 0 0 -1
    outer loop
      vertex 74.675 3.525 0
      vertex 73.675 2.525 0
      vertex 73.675 3.525 0
    endloop
  endfacet
  facet normal 0 0 -1
    outer loop
      vertex 74.675 6.525 0
      vertex 77.2 19.05 0
      vertex 74.675 3.525 0
    endloop
  endfacet
  facet normal 0 0 -1
    outer loop
      vertex 73.675 2.525 0
      vertex 74.675 3.525 0
      vertex 77.2 0 0
    endloop
  endfacet
  facet normal 0 0 -1
    outer loop
      vertex 73.675 6.525 0
      vertex 77.2 19.05 0
      vertex 74.675 6.525 0
    endloop
  endfacet
  facet normal 0 0 -1
    outer loop
      vertex 74.675 12.525 0
      vertex 77.2 19.05 0
      vertex 73.675 6.525 0
    endloop
  endfacet
  facet normal 0 0 -1
    outer loop
      vertex 73.675 16.525 0
      vertex 77.2 19.05 0
      vertex 73.675 15.525 0
    endloop
  endfacet
  facet normal 0 0 -1
    outer loop
      vertex 73.675 12.525 0
      vertex 74.675 12.525 0
      vertex 73.675 6.525 0
    endloop
  endfacet
  facet normal 0 0 -1
    outer loop
      vertex 58.675 6.525 0
      vertex 55.625 6.525 0
      vertex 59.675 12.525 0
    endloop
  endfacet
  facet normal 0 0 -1
    outer loop
      vertex 58.675 12.525 0
      vertex 55.625 12.525 0
      vertex 58.675 15.525 0
    endloop
  endfacet
  facet normal 0 0 -1
    outer loop
      vertex 54.625 15.525 0
      vertex 54.625 16.525 0
      vertex 59.675 16.525 0
    endloop
  endfacet
  facet normal 0 0 -1
    outer loop
      vertex 55.625 15.525 0
      vertex 54.625 15.525 0
      vertex 59.675 16.525 0
    endloop
  endfacet
  facet normal 0 0 -1
    outer loop
      vertex 40.625 16.525 0
      vertex 77.2 19.05 0
      vertex 54.625 16.525 0
    endloop
  endfacet
  facet normal 0 0 -1
    outer loop
      vertex 55.625 6.525 0
      vertex 55.625 12.525 0
      vertex 58.675 12.525 0
    endloop
  endfacet
  facet normal 0 0 -1
    outer loop
      vertex 55.625 6.525 0
      vertex 58.675 12.525 0
      vertex 59.675 12.525 0
    endloop
  endfacet
  facet normal 0 0 -1
    outer loop
      vertex 53.15 0 0
      vertex 56.15 -2.26795 0
      vertex 55.4179 -3 0
    endloop
  endfacet
  facet normal 0 0 -1
    outer loop
      vertex 53.15 0 0
      vertex 55.4179 -3 0
      vertex 55.15 -4 0
    endloop
  endfacet
  facet normal 0 0 -1
    outer loop
      vertex 53.15 0 0
      vertex 55.15 -4 0
      vertex 53.15 -4 0
    endloop
  endfacet
  facet normal 0 0 -1
    outer loop
      vertex 55.625 6.525 0
      vertex 58.675 6.525 0
      vertex 55.625 3.525 0
    endloop
  endfacet
  facet normal 0 0 -1
    outer loop
      vertex 20.575 12.525 0
      vertex 17.525 15.525 0
      vertex 20.575 15.525 0
    endloop
  endfacet
  facet normal 0 1 0
    outer loop
      vertex -1 19.05 0
      vertex -1 19.05 3
      vertex 19.05 19.05 0
    endloop
  endfacet
  facet normal 0 1 0
    outer loop
      vertex 19.05 19.05 0
      vertex -1 19.05 3
      vertex 19.05 19.05 3
    endloop
  endfacet
  facet normal 0 0 1
    outer loop
      vertex 53.15 -4 3
      vertex 53.6859 -6 3
      vertex 53.15 0 3
    endloop
  endfacet
  facet normal 0 0 1
    outer loop
      vertex 2.525 2.525 3
      vertex -1 0 3
      vertex 53.15 0 3
    endloop
  endfacet
  facet normal 0 0 1
    outer loop
      vertex 1.525 12.525 3
      vertex 1.525 15.525 3
      vertex -1 19.05 3
    endloop
  endfacet
  facet normal 0 0 1
    outer loop
      vertex 35.575 12.525 3
      vertex 39.625 6.525 3
      vertex 40.625 6.525 3
    endloop
  endfacet
  facet normal 0 0 1
    outer loop
      vertex 53.6859 -6 3
      vertex 55.15 -7.4641 3
      vertex 53.15 0 3
    endloop
  endfacet
  facet normal 0 0 1
    outer loop
      vertex 57.15 -6 3
      vertex 57.15 -8 3
      vertex 59.15 -7.4641 3
    endloop
  endfacet
  facet normal 0 0 1
    outer loop
      vertex 58.675 12.525 3
      vertex 58.675 15.525 3
      vertex 54.625 16.525 3
    endloop
  endfacet
  facet normal 0 0 1
    outer loop
      vertex 58.15 -2.26795 3
      vertex 58.8821 -3 3
      vertex 61.15 -4 3
    endloop
  endfacet
  facet normal 0 0 1
    outer loop
      vertex 58.15 -2.26795 3
      vertex 61.15 -4 3
      vertex 61.15 0 3
    endloop
  endfacet
  facet normal 0 0 1
    outer loop
      vertex 57.15 -2 3
      vertex 61.15 0 3
      vertex 53.15 0 3
    endloop
  endfacet
  facet normal 0 0 1
    outer loop
      vertex 59.675 6.525 3
      vertex 58.675 12.525 3
      vertex 55.625 12.525 3
    endloop
  endfacet
  facet normal 0 0 1
    outer loop
      vertex 35.575 16.525 3
      vertex 77.2 19.05 3
      vertex 23.05 19.05 3
    endloop
  endfacet
  facet normal 0 0 1
    outer loop
      vertex 20.7821 24.05 3
      vertex 23.05 23.05 3
      vertex 22.5141 25.05 3
    endloop
  endfacet
  facet normal 0 0 1
    outer loop
      vertex 19.05 25.05 3
      vertex 22.5141 25.05 3
      vertex 21.05 26.5141 3
    endloop
  endfacet
  facet normal 0 0 1
    outer loop
      vertex 15.5859 25.05 3
      vertex 21.05 26.5141 3
      vertex 19.05 27.05 3
    endloop
  endfacet
  facet normal 0 0 1
    outer loop
      vertex 15.5859 25.05 3
      vertex 18.05 24.7821 3
      vertex 21.05 26.5141 3
    endloop
  endfacet
  facet normal 0 0 1
    outer loop
      vertex 15.05 23.05 3
      vertex 15.05 19.05 3
      vertex 17.3179 22.05 3
    endloop
  endfacet
  facet normal 0 0 1
    outer loop
      vertex 21.05 23.05 3
      vertex 23.05 23.05 3
      vertex 20.7821 24.05 3
    endloop
  endfacet
  facet normal 0 0 1
    outer loop
      vertex 16.525 16.525 3
      vertex 19.05 19.05 3
      vertex -1 19.05 3
    endloop
  endfacet
  facet normal 0 0 1
    outer loop
      vertex 23.05 19.05 3
      vertex 15.05 19.05 3
      vertex 19.05 19.05 3
    endloop
  endfacet
  facet normal 0 0 1
    outer loop
      vertex 2.525 2.525 3
      vertex 2.525 3.525 3
      vertex 1.525 3.525 3
    endloop
  endfacet
  facet normal 0 0 1
    outer loop
      vertex -1 19.05 3
      vertex -1 0 3
      vertex 1.525 3.525 3
    endloop
  endfacet
  facet normal 0 0 1
    outer loop
      vertex 20.575 3.525 3
      vertex 20.575 6.525 3
      vertex 17.525 6.525 3
    endloop
  endfacet
  facet normal 0 0 1
    outer loop
      vertex -1 19.05 3
      vertex 1.525 3.525 3
      vertex 1.525 6.525 3
    endloop
  endfacet
  facet normal 0 0 1
    outer loop
      vertex 36.575 3.525 3
      vertex 35.575 3.525 3
      vertex 40.625 2.525 3
    endloop
  endfacet
  facet normal 0 0 1
    outer loop
      vertex -1 19.05 3
      vertex 1.525 6.525 3
      vertex 2.525 6.525 3
    endloop
  endfacet
  facet normal 0 0 1
    outer loop
      vertex 1.525 12.525 3
      vertex 2.525 6.525 3
      vertex 2.525 12.525 3
    endloop
  endfacet
  facet normal 0 0 1
    outer loop
      vertex -1 19.05 3
      vertex 2.525 6.525 3
      vertex 1.525 12.525 3
    endloop
  endfacet
  facet normal 0 0 1
    outer loop
      vertex 21.575 6.525 3
      vertex 20.575 12.525 3
      vertex 17.525 12.525 3
    endloop
  endfacet
  facet normal 0 0 1
    outer loop
      vertex 21.575 6.525 3
      vertex 21.575 12.525 3
      vertex 20.575 12.525 3
    endloop
  endfacet
  facet normal 0 0 1
    outer loop
      vertex -1 19.05 3
      vertex 1.525 15.525 3
      vertex 2.525 15.525 3
    endloop
  endfacet
  facet normal 0 0 1
    outer loop
      vertex 35.575 12.525 3
      vertex 36.575 6.525 3
      vertex 39.625 6.525 3
    endloop
  endfacet
  facet normal 0 0 1
    outer loop
      vertex -1 19.05 3
      vertex 2.525 15.525 3
      vertex 2.525 16.525 3
    endloop
  endfacet
  facet normal 0 0 1
    outer loop
      vertex 20.575 15.525 3
      vertex 19.05 19.05 3
      vertex 16.525 16.525 3
    endloop
  endfacet
  facet normal 0 0 1
    outer loop
      vertex 17.525 15.525 3
      vertex 16.525 16.525 3
      vertex 16.525 15.525 3
    endloop
  endfacet
  facet normal 0 0 1
    outer loop
      vertex 16.525 12.525 3
      vertex 20.575 6.525 3
      vertex 21.575 6.525 3
    endloop
  endfacet
  facet normal 0 0 1
    outer loop
      vertex 16.525 12.525 3
      vertex 17.525 6.525 3
      vertex 20.575 6.525 3
    endloop
  endfacet
  facet normal 0 0 1
    outer loop
      vertex 54.625 2.525 3
      vertex 40.625 2.525 3
      vertex 53.15 0 3
    endloop
  endfacet
  facet normal 0 0 1
    outer loop
      vertex 21.05 23.05 3
      vertex 20.7821 22.05 3
      vertex 23.05 23.05 3
    endloop
  endfacet
  facet normal 0 0 1
    outer loop
      vertex 21.575 2.525 3
      vertex 16.525 2.525 3
      vertex 53.15 0 3
    endloop
  endfacet
  facet normal 0 0 1
    outer loop
      vertex 1.525 3.525 3
      vertex -1 0 3
      vertex 2.525 2.525 3
    endloop
  endfacet
  facet normal 0 0 1
    outer loop
      vertex 18.05 24.7821 3
      vertex 19.05 25.05 3
      vertex 21.05 26.5141 3
    endloop
  endfacet
  facet normal 0 0 1
    outer loop
      vertex 20.575 12.525 3
      vertex 20.575 15.525 3
      vertex 16.525 16.525 3
    endloop
  endfacet
  facet normal 0 0 1
    outer loop
      vertex 20.7821 22.05 3
      vertex 20.05 21.3179 3
      vertex 23.05 23.05 3
    endloop
  endfacet
  facet normal 0 0 1
    outer loop
      vertex 15.05 23.05 3
      vertex 17.3179 22.05 3
      vertex 17.05 23.05 3
    endloop
  endfacet
  facet normal 0 0 1
    outer loop
      vertex 20.05 24.7821 3
      vertex 22.5141 25.05 3
      vertex 19.05 25.05 3
    endloop
  endfacet
  facet normal 0 0 1
    outer loop
      vertex 20.575 12.525 3
      vertex 16.525 16.525 3
      vertex 17.525 15.525 3
    endloop
  endfacet
  facet normal 0 0 1
    outer loop
      vertex 19.05 21.05 3
      vertex 18.05 21.3179 3
      vertex 15.05 19.05 3
    endloop
  endfacet
  facet normal 0 0 1
    outer loop
      vertex 23.05 19.05 3
      vertex 20.05 21.3179 3
      vertex 15.05 19.05 3
    endloop
  endfacet
  facet normal 0 0 1
    outer loop
      vertex 23.05 19.05 3
      vertex 23.05 23.05 3
      vertex 20.05 21.3179 3
    endloop
  endfacet
  facet normal 0 0 1
    outer loop
      vertex 15.05 19.05 3
      vertex 20.05 21.3179 3
      vertex 19.05 21.05 3
    endloop
  endfacet
  facet normal 0 0 1
    outer loop
      vertex 15.05 19.05 3
      vertex 18.05 21.3179 3
      vertex 17.3179 22.05 3
    endloop
  endfacet
  facet normal 0 0 1
    outer loop
      vertex 21.575 2.525 3
      vertex 17.525 3.525 3
      vertex 16.525 3.525 3
    endloop
  endfacet
  facet normal 0 0 1
    outer loop
      vertex 39.625 3.525 3
      vertex 39.625 6.525 3
      vertex 36.575 6.525 3
    endloop
  endfacet
  facet normal 0 0 1
    outer loop
      vertex 17.05 23.05 3
      vertex 17.3179 24.05 3
      vertex 15.05 23.05 3
    endloop
  endfacet
  facet normal 0 0 1
    outer loop
      vertex 21.575 2.525 3
      vertex 20.575 3.525 3
      vertex 17.525 3.525 3
    endloop
  endfacet
  facet normal 0 0 1
    outer loop
      vertex 21.575 2.525 3
      vertex 21.575 3.525 3
      vertex 20.575 3.525 3
    endloop
  endfacet
  facet normal 0 0 1
    outer loop
      vertex 17.525 15.525 3
      vertex 17.525 12.525 3
      vertex 20.575 12.525 3
    endloop
  endfacet
  facet normal 0 0 1
    outer loop
      vertex 40.625 6.525 3
      vertex 36.575 12.525 3
      vertex 35.575 12.525 3
    endloop
  endfacet
  facet normal 0 0 1
    outer loop
      vertex 21.575 16.525 3
      vertex 23.05 19.05 3
      vertex 19.05 19.05 3
    endloop
  endfacet
  facet normal 0 0 1
    outer loop
      vertex 40.625 6.525 3
      vertex 39.625 12.525 3
      vertex 36.575 12.525 3
    endloop
  endfacet
  facet normal 0 0 1
    outer loop
      vertex 21.575 15.525 3
      vertex 19.05 19.05 3
      vertex 20.575 15.525 3
    endloop
  endfacet
  facet normal 0 0 1
    outer loop
      vertex 40.625 6.525 3
      vertex 40.625 12.525 3
      vertex 39.625 12.525 3
    endloop
  endfacet
  facet normal 0 0 1
    outer loop
      vertex 21.575 16.525 3
      vertex 19.05 19.05 3
      vertex 21.575 15.525 3
    endloop
  endfacet
  facet normal 0 0 1
    outer loop
      vertex 40.625 16.525 3
      vertex 77.2 19.05 3
      vertex 35.575 16.525 3
    endloop
  endfacet
  facet normal 0 0 1
    outer loop
      vertex 36.575 15.525 3
      vertex 35.575 16.525 3
      vertex 35.575 15.525 3
    endloop
  endfacet
  facet normal 0 0 1
    outer loop
      vertex 54.625 2.525 3
      vertex 53.15 0 3
      vertex 61.15 0 3
    endloop
  endfacet
  facet normal 0 0 1
    outer loop
      vertex 40.625 15.525 3
      vertex 40.625 16.525 3
      vertex 39.625 15.525 3
    endloop
  endfacet
  facet normal 0 0 1
    outer loop
      vertex 54.625 12.525 3
      vertex 54.625 6.525 3
      vertex 55.625 6.525 3
    endloop
  endfacet
  facet normal 0 0 1
    outer loop
      vertex 35.575 2.525 3
      vertex 21.575 2.525 3
      vertex 53.15 0 3
    endloop
  endfacet
  facet normal 0 0 1
    outer loop
      vertex 56.15 -5.73205 3
      vertex 55.4179 -5 3
      vertex 57.15 -8 3
    endloop
  endfacet
  facet normal 0 0 1
    outer loop
      vertex 40.625 2.525 3
      vertex 35.575 3.525 3
      vertex 53.15 0 3
    endloop
  endfacet
  facet normal 0 0 1
    outer loop
      vertex 55.4179 -3 3
      vertex 56.15 -2.26795 3
      vertex 53.15 0 3
    endloop
  endfacet
  facet normal 0 0 1
    outer loop
      vertex 16.525 3.525 3
      vertex 16.525 2.525 3
      vertex 21.575 2.525 3
    endloop
  endfacet
  facet normal 0 0 1
    outer loop
      vertex 20.05 24.7821 3
      vertex 20.7821 24.05 3
      vertex 22.5141 25.05 3
    endloop
  endfacet
  facet normal 0 0 1
    outer loop
      vertex 16.525 2.525 3
      vertex 2.525 2.525 3
      vertex 53.15 0 3
    endloop
  endfacet
  facet normal 0 0 1
    outer loop
      vertex 58.675 3.525 3
      vertex 58.675 6.525 3
      vertex 55.625 6.525 3
    endloop
  endfacet
  facet normal 0 0 1
    outer loop
      vertex 21.575 16.525 3
      vertex 35.575 16.525 3
      vertex 23.05 19.05 3
    endloop
  endfacet
  facet normal 0 0 1
    outer loop
      vertex 40.625 2.525 3
      vertex 39.625 3.525 3
      vertex 36.575 3.525 3
    endloop
  endfacet
  facet normal 0 0 1
    outer loop
      vertex 36.575 15.525 3
      vertex 36.575 12.525 3
      vertex 39.625 12.525 3
    endloop
  endfacet
  facet normal 0 0 1
    outer loop
      vertex 54.625 12.525 3
      vertex 58.675 6.525 3
      vertex 59.675 6.525 3
    endloop
  endfacet
  facet normal 0 0 1
    outer loop
      vertex 54.625 12.525 3
      vertex 55.625 6.525 3
      vertex 58.675 6.525 3
    endloop
  endfacet
  facet normal 0 0 1
    outer loop
      vertex 59.675 2.525 3
      vertex 58.675 3.525 3
      vertex 55.625 3.525 3
    endloop
  endfacet
  facet normal 0 0 1
    outer loop
      vertex 40.625 16.525 3
      vertex 54.625 16.525 3
      vertex 77.2 19.05 3
    endloop
  endfacet
  facet normal 0 0 1
    outer loop
      vertex 55.625 6.525 3
      vertex 55.625 3.525 3
      vertex 58.675 3.525 3
    endloop
  endfacet
  facet normal 0 0 1
    outer loop
      vertex 39.625 15.525 3
      vertex 40.625 16.525 3
      vertex 35.575 16.525 3
    endloop
  endfacet
  facet normal 0 0 1
    outer loop
      vertex 59.675 16.525 3
      vertex 77.2 19.05 3
      vertex 54.625 16.525 3
    endloop
  endfacet
  facet normal 0 0 1
    outer loop
      vertex 55.625 15.525 3
      vertex 54.625 16.525 3
      vertex 54.625 15.525 3
    endloop
  endfacet
  facet normal 0 0 1
    outer loop
      vertex 58.675 12.525 3
      vertex 54.625 16.525 3
      vertex 55.625 15.525 3
    endloop
  endfacet
  facet normal 0 0 1
    outer loop
      vertex 59.675 15.525 3
      vertex 59.675 16.525 3
      vertex 58.675 15.525 3
    endloop
  endfacet
  facet normal 0 0 1
    outer loop
      vertex 39.625 12.525 3
      vertex 35.575 16.525 3
      vertex 36.575 15.525 3
    endloop
  endfacet
  facet normal 0 0 1
    outer loop
      vertex 59.675 6.525 3
      vertex 55.625 12.525 3
      vertex 54.625 12.525 3
    endloop
  endfacet
  facet normal 0 0 1
    outer loop
      vertex 61.15 0 3
      vertex 55.625 3.525 3
      vertex 54.625 3.525 3
    endloop
  endfacet
  facet normal 0 0 1
    outer loop
      vertex 73.675 2.525 3
      vertex 59.675 2.525 3
      vertex 77.2 0 3
    endloop
  endfacet
  facet normal 0 0 1
    outer loop
      vertex 61.15 0 3
      vertex 54.625 3.525 3
      vertex 54.625 2.525 3
    endloop
  endfacet
  facet normal 0 0 1
    outer loop
      vertex 35.575 3.525 3
      vertex 35.575 2.525 3
      vertex 53.15 0 3
    endloop
  endfacet
  facet normal 0 0 1
    outer loop
      vertex 21.575 6.525 3
      vertex 17.525 12.525 3
      vertex 16.525 12.525 3
    endloop
  endfacet
  facet normal 0 0 1
    outer loop
      vertex 17.525 6.525 3
      vertex 17.525 3.525 3
      vertex 20.575 3.525 3
    endloop
  endfacet
  facet normal 0 0 1
    outer loop
      vertex 55.15 -7.4641 3
      vertex 55.4179 -5 3
      vertex 53.15 0 3
    endloop
  endfacet
  facet normal 0 0 1
    outer loop
      vertex 55.15 -7.4641 3
      vertex 57.15 -8 3
      vertex 55.4179 -5 3
    endloop
  endfacet
  facet normal 0 0 1
    outer loop
      vertex 55.4179 -5 3
      vertex 55.15 -4 3
      vertex 53.15 0 3
    endloop
  endfacet
  facet normal 0 0 1
    outer loop
      vertex 55.15 -4 3
      vertex 55.4179 -3 3
      vertex 53.15 0 3
    endloop
  endfacet
  facet normal 0 0 1
    outer loop
      vertex 56.15 -2.26795 3
      vertex 57.15 -2 3
      vertex 53.15 0 3
    endloop
  endfacet
  facet normal 0 0 1
    outer loop
      vertex 57.15 -2 3
      vertex 58.15 -2.26795 3
      vertex 61.15 0 3
    endloop
  endfacet
  facet normal 0 0 1
    outer loop
      vertex 58.8821 -3 3
      vertex 59.15 -4 3
      vertex 61.15 -4 3
    endloop
  endfacet
  facet normal 0 0 1
    outer loop
      vertex 59.15 -4 3
      vertex 58.8821 -5 3
      vertex 60.6141 -6 3
    endloop
  endfacet
  facet normal 0 0 1
    outer loop
      vertex 60.6141 -6 3
      vertex 61.15 -4 3
      vertex 59.15 -4 3
    endloop
  endfacet
  facet normal 0 0 1
    outer loop
      vertex 58.15 -5.73205 3
      vertex 57.15 -6 3
      vertex 59.15 -7.4641 3
    endloop
  endfacet
  facet normal 0 0 1
    outer loop
      vertex 59.15 -7.4641 3
      vertex 60.6141 -6 3
      vertex 58.8821 -5 3
    endloop
  endfacet
  facet normal 0 0 1
    outer loop
      vertex 59.675 6.525 3
      vertex 59.675 12.525 3
      vertex 58.675 12.525 3
    endloop
  endfacet
  facet normal 0 0 1
    outer loop
      vertex 59.15 -7.4641 3
      vertex 58.8821 -5 3
      vertex 58.15 -5.73205 3
    endloop
  endfacet
  facet normal 0 0 1
    outer loop
      vertex 56.15 -5.73205 3
      vertex 57.15 -8 3
      vertex 57.15 -6 3
    endloop
  endfacet
  facet normal 0 0 1
    outer loop
      vertex 40.625 2.525 3
      vertex 40.625 3.525 3
      vertex 39.625 3.525 3
    endloop
  endfacet
  facet normal 0 0 1
    outer loop
      vertex 55.625 15.525 3
      vertex 55.625 12.525 3
      vertex 58.675 12.525 3
    endloop
  endfacet
  facet normal 0 0 1
    outer loop
      vertex 39.625 12.525 3
      vertex 39.625 15.525 3
      vertex 35.575 16.525 3
    endloop
  endfacet
  facet normal 0 0 1
    outer loop
      vertex 59.675 16.525 3
      vertex 73.675 16.525 3
      vertex 77.2 19.05 3
    endloop
  endfacet
  facet normal 0 0 1
    outer loop
      vertex 59.675 2.525 3
      vertex 59.675 3.525 3
      vertex 58.675 3.525 3
    endloop
  endfacet
  facet normal 0 0 1
    outer loop
      vertex 74.675 6.525 3
      vertex 74.675 3.525 3
      vertex 77.2 0 3
    endloop
  endfacet
  facet normal 0 0 1
    outer loop
      vertex 58.675 15.525 3
      vertex 59.675 16.525 3
      vertex 54.625 16.525 3
    endloop
  endfacet
  facet normal 0 0 1
    outer loop
      vertex 74.675 15.525 3
      vertex 77.2 19.05 3
      vertex 73.675 16.525 3
    endloop
  endfacet
  facet normal 0 0 1
    outer loop
      vertex 73.675 3.525 3
      vertex 73.675 2.525 3
      vertex 77.2 0 3
    endloop
  endfacet
  facet normal 0 0 1
    outer loop
      vertex 77.2 0 3
      vertex 77.2 19.05 3
      vertex 74.675 15.525 3
    endloop
  endfacet
  facet normal 0 0 1
    outer loop
      vertex 74.675 12.525 3
      vertex 73.675 12.525 3
      vertex 77.2 0 3
    endloop
  endfacet
  facet normal 0 0 1
    outer loop
      vertex 77.2 0 3
      vertex 74.675 15.525 3
      vertex 74.675 12.525 3
    endloop
  endfacet
  facet normal 0 0 1
    outer loop
      vertex 74.675 6.525 3
      vertex 73.675 12.525 3
      vertex 73.675 6.525 3
    endloop
  endfacet
  facet normal 0 0 1
    outer loop
      vertex 77.2 0 3
      vertex 73.675 12.525 3
      vertex 74.675 6.525 3
    endloop
  endfacet
  facet normal 0 0 1
    outer loop
      vertex 77.2 0 3
      vertex 74.675 3.525 3
      vertex 73.675 3.525 3
    endloop
  endfacet
  facet normal 0 0 1
    outer loop
      vertex 73.675 15.525 3
      vertex 74.675 15.525 3
      vertex 73.675 16.525 3
    endloop
  endfacet
  facet normal 0 0 1
    outer loop
      vertex 61.15 0 3
      vertex 59.675 2.525 3
      vertex 55.625 3.525 3
    endloop
  endfacet
  facet normal 0 0 1
    outer loop
      vertex 61.15 0 3
      vertex 77.2 0 3
      vertex 59.675 2.525 3
    endloop
  endfacet
  facet normal 0 0 1
    outer loop
      vertex 36.575 6.525 3
      vertex 36.575 3.525 3
      vertex 39.625 3.525 3
    endloop
  endfacet
  facet normal 0 0 1
    outer loop
      vertex 17.05 26.5141 3
      vertex 15.5859 25.05 3
      vertex 19.05 27.05 3
    endloop
  endfacet
  facet normal 0 0 1
    outer loop
      vertex 15.5859 25.05 3
      vertex 17.3179 24.05 3
      vertex 18.05 24.7821 3
    endloop
  endfacet
  facet normal 0 0 1
    outer loop
      vertex 15.5859 25.05 3
      vertex 15.05 23.05 3
      vertex 17.3179 24.05 3
    endloop
  endfacet
  facet normal 0 0 1
    outer loop
      vertex 2.525 16.525 3
      vertex 16.525 16.525 3
      vertex -1 19.05 3
    endloop
  endfacet
  facet normal 0 0 1
    outer loop
      vertex 16.525 12.525 3
      vertex 16.525 6.525 3
      vertex 17.525 6.525 3
    endloop
  endfacet
  facet normal 0 0 1
    outer loop
      vertex 35.575 12.525 3
      vertex 35.575 6.525 3
      vertex 36.575 6.525 3
    endloop
  endfacet
  facet normal -1 0 0
    outer loop
      vertex 53.15 -4 0
      vertex 53.15 -4 3
      vertex 53.15 0 0
    endloop
  endfacet
  facet normal -1 0 0
    outer loop
      vertex 53.15 0 0
      vertex 53.15 -4 3
      vertex 53.15 0 3
    endloop
  endfacet
  facet normal -0.965926 -0.258819 0
    outer loop
      vertex 53.15 -4 0
      vertex 53.6859 -6 0
      vertex 53.15 -4 3
    endloop
  endfacet
  facet normal -0.965926 -0.258819 0
    outer loop
      vertex 53.15 -4 3
      vertex 53.6859 -6 0
      vertex 53.6859 -6 3
    endloop
  endfacet
  facet normal -0.707107 -0.707107 0
    outer loop
      vertex 53.6859 -6 3
      vertex 53.6859 -6 0
      vertex 55.15 -7.4641 0
    endloop
  endfacet
  facet normal -0.707107 -0.707107 0
    outer loop
      vertex 55.15 -7.4641 3
      vertex 53.6859 -6 3
      vertex 55.15 -7.4641 0
    endloop
  endfacet
  facet normal -0.258819 -0.965926 0
    outer loop
      vertex 55.15 -7.4641 3
      vertex 55.15 -7.4641 0
      vertex 57.15 -8 0
    endloop
  endfacet
  facet normal -0.258819 -0.965926 0
    outer loop
      vertex 57.15 -8 3
      vertex 55.15 -7.4641 3
      vertex 57.15 -8 0
    endloop
  endfacet
  facet normal 0.258819 -0.965926 0
    outer loop
      vertex 57.15 -8 3
      vertex 57.15 -8 0
      vertex 59.15 -7.4641 0
    endloop
  endfacet
  facet normal 0.258819 -0.965926 0
    outer loop
      vertex 59.15 -7.4641 3
      vertex 57.15 -8 3
      vertex 59.15 -7.4641 0
    endloop
  endfacet
  facet normal 0.707107 -0.707107 0
    outer loop
      vertex 59.15 -7.4641 3
      vertex 59.15 -7.4641 0
      vertex 60.6141 -6 0
    endloop
  endfacet
  facet normal 0.707107 -0.707107 0
    outer loop
      vertex 60.6141 -6 3
      vertex 59.15 -7.4641 3
      vertex 60.6141 -6 0
    endloop
  endfacet
  facet normal 0.965926 -0.258819 0
    outer loop
      vertex 60.6141 -6 3
      vertex 60.6141 -6 0
      vertex 61.15 -4 0
    endloop
  endfacet
  facet normal 0.965926 -0.258819 0
    outer loop
      vertex 61.15 -4 3
      vertex 60.6141 -6 3
      vertex 61.15 -4 0
    endloop
  endfacet
  facet normal 1 0 0
    outer loop
      vertex 61.15 -4 3
      vertex 61.15 -4 0
      vertex 61.15 0 0
    endloop
  endfacet
  facet normal 1 0 0
    outer loop
      vertex 61.15 0 3
      vertex 61.15 -4 3
      vertex 61.15 0 0
    endloop
  endfacet
  facet normal 0 -1 0
    outer loop
      vertex 61.15 0 3
      vertex 61.15 0 0
      vertex 77.2 0 0
    endloop
  endfacet
  facet normal 0 -1 0
    outer loop
      vertex 77.2 0 3
      vertex 61.15 0 3
      vertex 77.2 0 0
    endloop
  endfacet
  facet normal 1 0 0
    outer loop
      vertex 77.2 0 3
      vertex 77.2 0 0
      vertex 77.2 19.05 0
    endloop
  endfacet
  facet normal 1 0 0
    outer loop
      vertex 77.2 19.05 3
      vertex 77.2 0 3
      vertex 77.2 19.05 0
    endloop
  endfacet
  facet normal 0 1 0
    outer loop
      vertex 23.05 19.05 0
      vertex 23.05 19.05 3
      vertex 77.2 19.05 0
    endloop
  endfacet
  facet normal 0 1 0
    outer loop
      vertex 77.2 19.05 0
      vertex 23.05 19.05 3
      vertex 77.2 19.05 3
    endloop
  endfacet
  facet normal 1 -1.22465e-16 0
    outer loop
      vertex 23.05 19.05 3
      vertex 23.05 19.05 0
      vertex 23.05 23.05 0
    endloop
  endfacet
  facet normal 1 -1.22465e-16 0
    outer loop
      vertex 23.05 23.05 3
      vertex 23.05 19.05 3
      vertex 23.05 23.05 0
    endloop
  endfacet
  facet normal 0.965926 0.258819 0
    outer loop
      vertex 23.05 23.05 0
      vertex 22.5141 25.05 0
      vertex 22.5141 25.05 3
    endloop
  endfacet
  facet normal 0.965926 0.258819 0
    outer loop
      vertex 23.05 23.05 3
      vertex 23.05 23.05 0
      vertex 22.5141 25.05 3
    endloop
  endfacet
  facet normal 0.707107 0.707107 0
    outer loop
      vertex 22.5141 25.05 0
      vertex 21.05 26.5141 0
      vertex 21.05 26.5141 3
    endloop
  endfacet
  facet normal 0.707107 0.707107 0
    outer loop
      vertex 22.5141 25.05 3
      vertex 22.5141 25.05 0
      vertex 21.05 26.5141 3
    endloop
  endfacet
  facet normal 0.258819 0.965926 0
    outer loop
      vertex 19.05 27.05 0
      vertex 19.05 27.05 3
      vertex 21.05 26.5141 0
    endloop
  endfacet
  facet normal 0.258819 0.965926 0
    outer loop
      vertex 21.05 26.5141 0
      vertex 19.05 27.05 3
      vertex 21.05 26.5141 3
    endloop
  endfacet
  facet normal -0.258819 0.965926 0
    outer loop
      vertex 17.05 26.5141 0
      vertex 17.05 26.5141 3
      vertex 19.05 27.05 0
    endloop
  endfacet
  facet normal -0.258819 0.965926 0
    outer loop
      vertex 19.05 27.05 0
      vertex 17.05 26.5141 3
      vertex 19.05 27.05 3
    endloop
  endfacet
  facet normal -0.707107 0.707107 0
    outer loop
      vertex 15.5859 25.05 0
      vertex 15.5859 25.05 3
      vertex 17.05 26.5141 0
    endloop
  endfacet
  facet normal -0.707107 0.707107 0
    outer loop
      vertex 17.05 26.5141 0
      vertex 15.5859 25.05 3
      vertex 17.05 26.5141 3
    endloop
  endfacet
  facet normal -0.965926 0.258819 0
    outer loop
      vertex 15.05 23.05 0
      vertex 15.05 23.05 3
      vertex 15.5859 25.05 0
    endloop
  endfacet
  facet normal -0.965926 0.258819 0
    outer loop
      vertex 15.5859 25.05 0
      vertex 15.05 23.05 3
      vertex 15.5859 25.05 3
    endloop
  endfacet
  facet normal -1 1.22465e-16 0
    outer loop
      vertex 15.05 19.05 0
      vertex 15.05 19.05 3
      vertex 15.05 23.05 0
    endloop
  endfacet
  facet normal -1 1.22465e-16 0
    outer loop
      vertex 15.05 23.05 0
      vertex 15.05 19.05 3
      vertex 15.05 23.05 3
    endloop
  endfacet
  facet normal -1.22465e-16 -1 0
    outer loop
      vertex 15.05 19.05 3
      vertex 15.05 19.05 0
      vertex 19.05 19.05 0
    endloop
  endfacet
  facet normal -1.22465e-16 -1 0
    outer loop
      vertex 19.05 19.05 3
      vertex 15.05 19.05 3
      vertex 19.05 19.05 0
    endloop
  endfacet
  facet normal 1 0 0
    outer loop
      vertex 1.525 6.525 0
      vertex 1.525 6.525 3
      vertex 1.525 3.525 3
    endloop
  endfacet
  facet normal 1 0 0
    outer loop
      vertex 1.525 3.525 0
      vertex 1.525 6.525 0
      vertex 1.525 3.525 3
    endloop
  endfacet
  facet normal 0 -1 0
    outer loop
      vertex 2.525 6.525 0
      vertex 2.525 6.525 3
      vertex 1.525 6.525 3
    endloop
  endfacet
  facet normal 0 -1 0
    outer loop
      vertex 1.525 6.525 0
      vertex 2.525 6.525 0
      vertex 1.525 6.525 3
    endloop
  endfacet
  facet normal 1 0 0
    outer loop
      vertex 2.525 12.525 0
      vertex 2.525 12.525 3
      vertex 2.525 6.525 3
    endloop
  endfacet
  facet normal 1 0 0
    outer loop
      vertex 2.525 6.525 0
      vertex 2.525 12.525 0
      vertex 2.525 6.525 3
    endloop
  endfacet
  facet normal 0 1 0
    outer loop
      vertex 2.525 12.525 3
      vertex 2.525 12.525 0
      vertex 1.525 12.525 3
    endloop
  endfacet
  facet normal 0 1 0
    outer loop
      vertex 1.525 12.525 3
      vertex 2.525 12.525 0
      vertex 1.525 12.525 0
    endloop
  endfacet
  facet normal 1 0 0
    outer loop
      vertex 1.525 15.525 0
      vertex 1.525 15.525 3
      vertex 1.525 12.525 3
    endloop
  endfacet
  facet normal 1 0 0
    outer loop
      vertex 1.525 12.525 0
      vertex 1.525 15.525 0
      vertex 1.525 12.525 3
    endloop
  endfacet
  facet normal 0 -1 0
    outer loop
      vertex 2.525 15.525 0
      vertex 2.525 15.525 3
      vertex 1.525 15.525 3
    endloop
  endfacet
  facet normal 0 -1 0
    outer loop
      vertex 1.525 15.525 0
      vertex 2.525 15.525 0
      vertex 1.525 15.525 3
    endloop
  endfacet
  facet normal 1 0 0
    outer loop
      vertex 2.525 16.525 0
      vertex 2.525 16.525 3
      vertex 2.525 15.525 3
    endloop
  endfacet
  facet normal 1 0 0
    outer loop
      vertex 2.525 15.525 0
      vertex 2.525 16.525 0
      vertex 2.525 15.525 3
    endloop
  endfacet
  facet normal 0 -1 0
    outer loop
      vertex 16.525 16.525 0
      vertex 16.525 16.525 3
      vertex 2.525 16.525 3
    endloop
  endfacet
  facet normal 0 -1 0
    outer loop
      vertex 2.525 16.525 0
      vertex 16.525 16.525 0
      vertex 2.525 16.525 3
    endloop
  endfacet
  facet normal -1 0 0
    outer loop
      vertex 16.525 16.525 3
      vertex 16.525 16.525 0
      vertex 16.525 15.525 3
    endloop
  endfacet
  facet normal -1 0 0
    outer loop
      vertex 16.525 15.525 3
      vertex 16.525 16.525 0
      vertex 16.525 15.525 0
    endloop
  endfacet
  facet normal 0 -1 0
    outer loop
      vertex 17.525 15.525 0
      vertex 17.525 15.525 3
      vertex 16.525 15.525 3
    endloop
  endfacet
  facet normal 0 -1 0
    outer loop
      vertex 16.525 15.525 0
      vertex 17.525 15.525 0
      vertex 16.525 15.525 3
    endloop
  endfacet
  facet normal -1 0 0
    outer loop
      vertex 17.525 15.525 3
      vertex 17.525 15.525 0
      vertex 17.525 12.525 3
    endloop
  endfacet
  facet normal -1 0 0
    outer loop
      vertex 17.525 12.525 3
      vertex 17.525 15.525 0
      vertex 17.525 12.525 0
    endloop
  endfacet
  facet normal 0 1 0
    outer loop
      vertex 17.525 12.525 3
      vertex 17.525 12.525 0
      vertex 16.525 12.525 3
    endloop
  endfacet
  facet normal 0 1 0
    outer loop
      vertex 16.525 12.525 3
      vertex 17.525 12.525 0
      vertex 16.525 12.525 0
    endloop
  endfacet
  facet normal -1 0 0
    outer loop
      vertex 16.525 12.525 3
      vertex 16.525 12.525 0
      vertex 16.525 6.525 3
    endloop
  endfacet
  facet normal -1 0 0
    outer loop
      vertex 16.525 6.525 3
      vertex 16.525 12.525 0
      vertex 16.525 6.525 0
    endloop
  endfacet
  facet normal 0 -1 0
    outer loop
      vertex 17.525 6.525 0
      vertex 17.525 6.525 3
      vertex 16.525 6.525 3
    endloop
  endfacet
  facet normal 0 -1 0
    outer loop
      vertex 16.525 6.525 0
      vertex 17.525 6.525 0
      vertex 16.525 6.525 3
    endloop
  endfacet
  facet normal -1 0 0
    outer loop
      vertex 17.525 6.525 3
      vertex 17.525 6.525 0
      vertex 17.525 3.525 3
    endloop
  endfacet
  facet normal -1 0 0
    outer loop
      vertex 17.525 3.525 3
      vertex 17.525 6.525 0
      vertex 17.525 3.525 0
    endloop
  endfacet
  facet normal 0 1 0
    outer loop
      vertex 17.525 3.525 3
      vertex 17.525 3.525 0
      vertex 16.525 3.525 3
    endloop
  endfacet
  facet normal 0 1 0
    outer loop
      vertex 16.525 3.525 3
      vertex 17.525 3.525 0
      vertex 16.525 3.525 0
    endloop
  endfacet
  facet normal -1 0 0
    outer loop
      vertex 16.525 3.525 3
      vertex 16.525 3.525 0
      vertex 16.525 2.525 3
    endloop
  endfacet
  facet normal -1 0 0
    outer loop
      vertex 16.525 2.525 3
      vertex 16.525 3.525 0
      vertex 16.525 2.525 0
    endloop
  endfacet
  facet normal 0 1 0
    outer loop
      vertex 16.525 2.525 3
      vertex 16.525 2.525 0
      vertex 2.525 2.525 3
    endloop
  endfacet
  facet normal 0 1 0
    outer loop
      vertex 2.525 2.525 3
      vertex 16.525 2.525 0
      vertex 2.525 2.525 0
    endloop
  endfacet
  facet normal 1 0 0
    outer loop
      vertex 2.525 3.525 0
      vertex 2.525 3.525 3
      vertex 2.525 2.525 3
    endloop
  endfacet
  facet normal 1 0 0
    outer loop
      vertex 2.525 2.525 0
      vertex 2.525 3.525 0
      vertex 2.525 2.525 3
    endloop
  endfacet
  facet normal 0 1 0
    outer loop
      vertex 2.525 3.525 3
      vertex 2.525 3.525 0
      vertex 1.525 3.525 3
    endloop
  endfacet
  facet normal 0 1 0
    outer loop
      vertex 1.525 3.525 3
      vertex 2.525 3.525 0
      vertex 1.525 3.525 0
    endloop
  endfacet
  facet normal 0.965926 0.258819 0
    outer loop
      vertex 17.05 23.05 3
      vertex 17.3179 22.05 3
      vertex 17.3179 22.05 0
    endloop
  endfacet
  facet normal 0.965926 0.258819 0
    outer loop
      vertex 17.05 23.05 0
      vertex 17.05 23.05 3
      vertex 17.3179 22.05 0
    endloop
  endfacet
  facet normal 0.965926 -0.258819 0
    outer loop
      vertex 17.3179 24.05 0
      vertex 17.3179 24.05 3
      vertex 17.05 23.05 3
    endloop
  endfacet
  facet normal 0.965926 -0.258819 0
    outer loop
      vertex 17.05 23.05 0
      vertex 17.3179 24.05 0
      vertex 17.05 23.05 3
    endloop
  endfacet
  facet normal 0.707107 -0.707107 0
    outer loop
      vertex 18.05 24.7821 0
      vertex 18.05 24.7821 3
      vertex 17.3179 24.05 3
    endloop
  endfacet
  facet normal 0.707107 -0.707107 0
    outer loop
      vertex 17.3179 24.05 0
      vertex 18.05 24.7821 0
      vertex 17.3179 24.05 3
    endloop
  endfacet
  facet normal 0.258819 -0.965926 0
    outer loop
      vertex 19.05 25.05 0
      vertex 19.05 25.05 3
      vertex 18.05 24.7821 3
    endloop
  endfacet
  facet normal 0.258819 -0.965926 0
    outer loop
      vertex 18.05 24.7821 0
      vertex 19.05 25.05 0
      vertex 18.05 24.7821 3
    endloop
  endfacet
  facet normal -0.258819 -0.965926 0
    outer loop
      vertex 20.05 24.7821 0
      vertex 20.05 24.7821 3
      vertex 19.05 25.05 3
    endloop
  endfacet
  facet normal -0.258819 -0.965926 0
    outer loop
      vertex 19.05 25.05 0
      vertex 20.05 24.7821 0
      vertex 19.05 25.05 3
    endloop
  endfacet
  facet normal -0.707107 -0.707107 0
    outer loop
      vertex 20.7821 24.05 3
      vertex 20.05 24.7821 3
      vertex 20.7821 24.05 0
    endloop
  endfacet
  facet normal -0.707107 -0.707107 0
    outer loop
      vertex 20.7821 24.05 0
      vertex 20.05 24.7821 3
      vertex 20.05 24.7821 0
    endloop
  endfacet
  facet normal -0.965926 -0.258819 0
    outer loop
      vertex 21.05 23.05 3
      vertex 20.7821 24.05 3
      vertex 21.05 23.05 0
    endloop
  endfacet
  facet normal -0.965926 -0.258819 0
    outer loop
      vertex 21.05 23.05 0
      vertex 20.7821 24.05 3
      vertex 20.7821 24.05 0
    endloop
  endfacet
  facet normal -0.965926 0.258819 0
    outer loop
      vertex 21.05 23.05 3
      vertex 21.05 23.05 0
      vertex 20.7821 22.05 3
    endloop
  endfacet
  facet normal -0.965926 0.258819 0
    outer loop
      vertex 20.7821 22.05 3
      vertex 21.05 23.05 0
      vertex 20.7821 22.05 0
    endloop
  endfacet
  facet normal -0.707107 0.707107 0
    outer loop
      vertex 20.7821 22.05 3
      vertex 20.7821 22.05 0
      vertex 20.05 21.3179 3
    endloop
  endfacet
  facet normal -0.707107 0.707107 0
    outer loop
      vertex 20.05 21.3179 3
      vertex 20.7821 22.05 0
      vertex 20.05 21.3179 0
    endloop
  endfacet
  facet normal -0.258819 0.965926 0
    outer loop
      vertex 20.05 21.3179 3
      vertex 20.05 21.3179 0
      vertex 19.05 21.05 3
    endloop
  endfacet
  facet normal -0.258819 0.965926 0
    outer loop
      vertex 19.05 21.05 3
      vertex 20.05 21.3179 0
      vertex 19.05 21.05 0
    endloop
  endfacet
  facet normal 0.258819 0.965926 0
    outer loop
      vertex 19.05 21.05 3
      vertex 19.05 21.05 0
      vertex 18.05 21.3179 3
    endloop
  endfacet
  facet normal 0.258819 0.965926 0
    outer loop
      vertex 18.05 21.3179 3
      vertex 19.05 21.05 0
      vertex 18.05 21.3179 0
    endloop
  endfacet
  facet normal 0.707107 0.707107 0
    outer loop
      vertex 17.3179 22.05 3
      vertex 18.05 21.3179 3
      vertex 18.05 21.3179 0
    endloop
  endfacet
  facet normal 0.707107 0.707107 0
    outer loop
      vertex 17.3179 22.05 0
      vertex 17.3179 22.05 3
      vertex 18.05 21.3179 0
    endloop
  endfacet
  facet normal 1 0 0
    outer loop
      vertex 20.575 6.525 0
      vertex 20.575 6.525 3
      vertex 20.575 3.525 3
    endloop
  endfacet
  facet normal 1 0 0
    outer loop
      vertex 20.575 3.525 0
      vertex 20.575 6.525 0
      vertex 20.575 3.525 3
    endloop
  endfacet
  facet normal 0 -1 0
    outer loop
      vertex 21.575 6.525 0
      vertex 21.575 6.525 3
      vertex 20.575 6.525 3
    endloop
  endfacet
  facet normal 0 -1 0
    outer loop
      vertex 20.575 6.525 0
      vertex 21.575 6.525 0
      vertex 20.575 6.525 3
    endloop
  endfacet
  facet normal 1 0 0
    outer loop
      vertex 21.575 12.525 0
      vertex 21.575 12.525 3
      vertex 21.575 6.525 3
    endloop
  endfacet
  facet normal 1 0 0
    outer loop
      vertex 21.575 6.525 0
      vertex 21.575 12.525 0
      vertex 21.575 6.525 3
    endloop
  endfacet
  facet normal 0 1 0
    outer loop
      vertex 21.575 12.525 3
      vertex 21.575 12.525 0
      vertex 20.575 12.525 3
    endloop
  endfacet
  facet normal 0 1 0
    outer loop
      vertex 20.575 12.525 3
      vertex 21.575 12.525 0
      vertex 20.575 12.525 0
    endloop
  endfacet
  facet normal 1 0 0
    outer loop
      vertex 20.575 15.525 0
      vertex 20.575 15.525 3
      vertex 20.575 12.525 3
    endloop
  endfacet
  facet normal 1 0 0
    outer loop
      vertex 20.575 12.525 0
      vertex 20.575 15.525 0
      vertex 20.575 12.525 3
    endloop
  endfacet
  facet normal 0 -1 0
    outer loop
      vertex 21.575 15.525 0
      vertex 21.575 15.525 3
      vertex 20.575 15.525 3
    endloop
  endfacet
  facet normal 0 -1 0
    outer loop
      vertex 20.575 15.525 0
      vertex 21.575 15.525 0
      vertex 20.575 15.525 3
    endloop
  endfacet
  facet normal 1 0 0
    outer loop
      vertex 21.575 16.525 0
      vertex 21.575 16.525 3
      vertex 21.575 15.525 3
    endloop
  endfacet
  facet normal 1 0 0
    outer loop
      vertex 21.575 15.525 0
      vertex 21.575 16.525 0
      vertex 21.575 15.525 3
    endloop
  endfacet
  facet normal 0 -1 0
    outer loop
      vertex 35.575 16.525 0
      vertex 35.575 16.525 3
      vertex 21.575 16.525 3
    endloop
  endfacet
  facet normal 0 -1 0
    outer loop
      vertex 21.575 16.525 0
      vertex 35.575 16.525 0
      vertex 21.575 16.525 3
    endloop
  endfacet
  facet normal -1 0 0
    outer loop
      vertex 35.575 16.525 3
      vertex 35.575 16.525 0
      vertex 35.575 15.525 3
    endloop
  endfacet
  facet normal -1 0 0
    outer loop
      vertex 35.575 15.525 3
      vertex 35.575 16.525 0
      vertex 35.575 15.525 0
    endloop
  endfacet
  facet normal 0 -1 0
    outer loop
      vertex 36.575 15.525 0
      vertex 36.575 15.525 3
      vertex 35.575 15.525 3
    endloop
  endfacet
  facet normal 0 -1 0
    outer loop
      vertex 35.575 15.525 0
      vertex 36.575 15.525 0
      vertex 35.575 15.525 3
    endloop
  endfacet
  facet normal -1 0 0
    outer loop
      vertex 36.575 15.525 3
      vertex 36.575 15.525 0
      vertex 36.575 12.525 3
    endloop
  endfacet
  facet normal -1 0 0
    outer loop
      vertex 36.575 12.525 3
      vertex 36.575 15.525 0
      vertex 36.575 12.525 0
    endloop
  endfacet
  facet normal 0 1 0
    outer loop
      vertex 36.575 12.525 3
      vertex 36.575 12.525 0
      vertex 35.575 12.525 3
    endloop
  endfacet
  facet normal 0 1 0
    outer loop
      vertex 35.575 12.525 3
      vertex 36.575 12.525 0
      vertex 35.575 12.525 0
    endloop
  endfacet
  facet normal -1 0 0
    outer loop
      vertex 35.575 12.525 3
      vertex 35.575 12.525 0
      vertex 35.575 6.525 3
    endloop
  endfacet
  facet normal -1 0 0
    outer loop
      vertex 35.575 6.525 3
      vertex 35.575 12.525 0
      vertex 35.575 6.525 0
    endloop
  endfacet
  facet normal 0 -1 0
    outer loop
      vertex 36.575 6.525 0
      vertex 36.575 6.525 3
      vertex 35.575 6.525 3
    endloop
  endfacet
  facet normal 0 -1 0
    outer loop
      vertex 35.575 6.525 0
      vertex 36.575 6.525 0
      vertex 35.575 6.525 3
    endloop
  endfacet
  facet normal -1 0 0
    outer loop
      vertex 36.575 6.525 3
      vertex 36.575 6.525 0
      vertex 36.575 3.525 3
    endloop
  endfacet
  facet normal -1 0 0
    outer loop
      vertex 36.575 3.525 3
      vertex 36.575 6.525 0
      vertex 36.575 3.525 0
    endloop
  endfacet
  facet normal 0 1 0
    outer loop
      vertex 36.575 3.525 3
      vertex 36.575 3.525 0
      vertex 35.575 3.525 3
    endloop
  endfacet
  facet normal 0 1 0
    outer loop
      vertex 35.575 3.525 3
      vertex 36.575 3.525 0
      vertex 35.575 3.525 0
    endloop
  endfacet
  facet normal -1 0 0
    outer loop
      vertex 35.575 3.525 3
      vertex 35.575 3.525 0
      vertex 35.575 2.525 3
    endloop
  endfacet
  facet normal -1 0 0
    outer loop
      vertex 35.575 2.525 3
      vertex 35.575 3.525 0
      vertex 35.575 2.525 0
    endloop
  endfacet
  facet normal 0 1 0
    outer loop
      vertex 35.575 2.525 3
      vertex 35.575 2.525 0
      vertex 21.575 2.525 3
    endloop
  endfacet
  facet normal 0 1 0
    outer loop
      vertex 21.575 2.525 3
      vertex 35.575 2.525 0
      vertex 21.575 2.525 0
    endloop
  endfacet
  facet normal 1 0 0
    outer loop
      vertex 21.575 3.525 0
      vertex 21.575 3.525 3
      vertex 21.575 2.525 3
    endloop
  endfacet
  facet normal 1 0 0
    outer loop
      vertex 21.575 2.525 0
      vertex 21.575 3.525 0
      vertex 21.575 2.525 3
    endloop
  endfacet
  facet normal 0 1 0
    outer loop
      vertex 21.575 3.525 3
      vertex 21.575 3.525 0
      vertex 20.575 3.525 3
    endloop
  endfacet
  facet normal 0 1 0
    outer loop
      vertex 20.575 3.525 3
      vertex 21.575 3.525 0
      vertex 20.575 3.525 0
    endloop
  endfacet
  facet normal 1 0 0
    outer loop
      vertex 39.625 6.525 0
      vertex 39.625 6.525 3
      vertex 39.625 3.525 3
    endloop
  endfacet
  facet normal 1 0 0
    outer loop
      vertex 39.625 3.525 0
      vertex 39.625 6.525 0
      vertex 39.625 3.525 3
    endloop
  endfacet
  facet normal 0 -1 0
    outer loop
      vertex 40.625 6.525 0
      vertex 40.625 6.525 3
      vertex 39.625 6.525 3
    endloop
  endfacet
  facet normal 0 -1 0
    outer loop
      vertex 39.625 6.525 0
      vertex 40.625 6.525 0
      vertex 39.625 6.525 3
    endloop
  endfacet
  facet normal 1 0 0
    outer loop
      vertex 40.625 12.525 0
      vertex 40.625 12.525 3
      vertex 40.625 6.525 3
    endloop
  endfacet
  facet normal 1 0 0
    outer loop
      vertex 40.625 6.525 0
      vertex 40.625 12.525 0
      vertex 40.625 6.525 3
    endloop
  endfacet
  facet normal 0 1 0
    outer loop
      vertex 40.625 12.525 3
      vertex 40.625 12.525 0
      vertex 39.625 12.525 3
    endloop
  endfacet
  facet normal 0 1 0
    outer loop
      vertex 39.625 12.525 3
      vertex 40.625 12.525 0
      vertex 39.625 12.525 0
    endloop
  endfacet
  facet normal 1 0 0
    outer loop
      vertex 39.625 15.525 0
      vertex 39.625 15.525 3
      vertex 39.625 12.525 3
    endloop
  endfacet
  facet normal 1 0 0
    outer loop
      vertex 39.625 12.525 0
      vertex 39.625 15.525 0
      vertex 39.625 12.525 3
    endloop
  endfacet
  facet normal 0 -1 0
    outer loop
      vertex 40.625 15.525 0
      vertex 40.625 15.525 3
      vertex 39.625 15.525 3
    endloop
  endfacet
  facet normal 0 -1 0
    outer loop
      vertex 39.625 15.525 0
      vertex 40.625 15.525 0
      vertex 39.625 15.525 3
    endloop
  endfacet
  facet normal 1 0 0
    outer loop
      vertex 40.625 16.525 0
      vertex 40.625 16.525 3
      vertex 40.625 15.525 3
    endloop
  endfacet
  facet normal 1 0 0
    outer loop
      vertex 40.625 15.525 0
      vertex 40.625 16.525 0
      vertex 40.625 15.525 3
    endloop
  endfacet
  facet normal 0 -1 0
    outer loop
      vertex 54.625 16.525 0
      vertex 54.625 16.525 3
      vertex 40.625 16.525 3
    endloop
  endfacet
  facet normal 0 -1 0
    outer loop
      vertex 40.625 16.525 0
      vertex 54.625 16.525 0
      vertex 40.625 16.525 3
    endloop
  endfacet
  facet normal -1 0 0
    outer loop
      vertex 54.625 16.525 3
      vertex 54.625 16.525 0
      vertex 54.625 15.525 3
    endloop
  endfacet
  facet normal -1 0 0
    outer loop
      vertex 54.625 15.525 3
      vertex 54.625 16.525 0
      vertex 54.625 15.525 0
    endloop
  endfacet
  facet normal 0 -1 0
    outer loop
      vertex 55.625 15.525 0
      vertex 55.625 15.525 3
      vertex 54.625 15.525 3
    endloop
  endfacet
  facet normal 0 -1 0
    outer loop
      vertex 54.625 15.525 0
      vertex 55.625 15.525 0
      vertex 54.625 15.525 3
    endloop
  endfacet
  facet normal -1 0 0
    outer loop
      vertex 55.625 15.525 3
      vertex 55.625 15.525 0
      vertex 55.625 12.525 3
    endloop
  endfacet
  facet normal -1 0 0
    outer loop
      vertex 55.625 12.525 3
      vertex 55.625 15.525 0
      vertex 55.625 12.525 0
    endloop
  endfacet
  facet normal 0 1 0
    outer loop
      vertex 55.625 12.525 3
      vertex 55.625 12.525 0
      vertex 54.625 12.525 3
    endloop
  endfacet
  facet normal 0 1 0
    outer loop
      vertex 54.625 12.525 3
      vertex 55.625 12.525 0
      vertex 54.625 12.525 0
    endloop
  endfacet
  facet normal -1 0 0
    outer loop
      vertex 54.625 12.525 3
      vertex 54.625 12.525 0
      vertex 54.625 6.525 3
    endloop
  endfacet
  facet normal -1 0 0
    outer loop
      vertex 54.625 6.525 3
      vertex 54.625 12.525 0
      vertex 54.625 6.525 0
    endloop
  endfacet
  facet normal 0 -1 0
    outer loop
      vertex 55.625 6.525 0
      vertex 55.625 6.525 3
      vertex 54.625 6.525 3
    endloop
  endfacet
  facet normal 0 -1 0
    outer loop
      vertex 54.625 6.525 0
      vertex 55.625 6.525 0
      vertex 54.625 6.525 3
    endloop
  endfacet
  facet normal -1 0 0
    outer loop
      vertex 55.625 6.525 3
      vertex 55.625 6.525 0
      vertex 55.625 3.525 3
    endloop
  endfacet
  facet normal -1 0 0
    outer loop
      vertex 55.625 3.525 3
      vertex 55.625 6.525 0
      vertex 55.625 3.525 0
    endloop
  endfacet
  facet normal 0 1 0
    outer loop
      vertex 55.625 3.525 3
      vertex 55.625 3.525 0
      vertex 54.625 3.525 3
    endloop
  endfacet
  facet normal 0 1 0
    outer loop
      vertex 54.625 3.525 3
      vertex 55.625 3.525 0
      vertex 54.625 3.525 0
    endloop
  endfacet
  facet normal -1 0 0
    outer loop
      vertex 54.625 3.525 3
      vertex 54.625 3.525 0
      vertex 54.625 2.525 3
    endloop
  endfacet
  facet normal -1 0 0
    outer loop
      vertex 54.625 2.525 3
      vertex 54.625 3.525 0
      vertex 54.625 2.525 0
    endloop
  endfacet
  facet normal 0 1 0
    outer loop
      vertex 54.625 2.525 3
      vertex 54.625 2.525 0
      vertex 40.625 2.525 3
    endloop
  endfacet
  facet normal 0 1 0
    outer loop
      vertex 40.625 2.525 3
      vertex 54.625 2.525 0
      vertex 40.625 2.525 0
    endloop
  endfacet
  facet normal 1 0 0
    outer loop
      vertex 40.625 3.525 0
      vertex 40.625 3.525 3
      vertex 40.625 2.525 3
    endloop
  endfacet
  facet normal 1 0 0
    outer loop
      vertex 40.625 2.525 0
      vertex 40.625 3.525 0
      vertex 40.625 2.525 3
    endloop
  endfacet
  facet normal 0 1 0
    outer loop
      vertex 40.625 3.525 3
      vertex 40.625 3.525 0
      vertex 39.625 3.525 3
    endloop
  endfacet
  facet normal 0 1 0
    outer loop
      vertex 39.625 3.525 3
      vertex 40.625 3.525 0
      vertex 39.625 3.525 0
    endloop
  endfacet
  facet normal 0.965926 -0.258819 0
    outer loop
      vertex 55.4179 -3 0
      vertex 55.4179 -3 3
      vertex 55.15 -4 3
    endloop
  endfacet
  facet normal 0.965926 -0.258819 0
    outer loop
      vertex 55.15 -4 0
      vertex 55.4179 -3 0
      vertex 55.15 -4 3
    endloop
  endfacet
  facet normal 0.965926 0.258819 0
    outer loop
      vertex 55.15 -4 3
      vertex 55.4179 -5 3
      vertex 55.4179 -5 0
    endloop
  endfacet
  facet normal 0.965926 0.258819 0
    outer loop
      vertex 55.15 -4 0
      vertex 55.15 -4 3
      vertex 55.4179 -5 0
    endloop
  endfacet
  facet normal 0.707107 -0.707107 0
    outer loop
      vertex 56.15 -2.26795 0
      vertex 56.15 -2.26795 3
      vertex 55.4179 -3 3
    endloop
  endfacet
  facet normal 0.707107 -0.707107 0
    outer loop
      vertex 55.4179 -3 0
      vertex 56.15 -2.26795 0
      vertex 55.4179 -3 3
    endloop
  endfacet
  facet normal 0.258819 -0.965926 0
    outer loop
      vertex 57.15 -2 0
      vertex 57.15 -2 3
      vertex 56.15 -2.26795 3
    endloop
  endfacet
  facet normal 0.258819 -0.965926 0
    outer loop
      vertex 56.15 -2.26795 0
      vertex 57.15 -2 0
      vertex 56.15 -2.26795 3
    endloop
  endfacet
  facet normal -0.258819 -0.965926 0
    outer loop
      vertex 58.15 -2.26795 0
      vertex 58.15 -2.26795 3
      vertex 57.15 -2 3
    endloop
  endfacet
  facet normal -0.258819 -0.965926 0
    outer loop
      vertex 57.15 -2 0
      vertex 58.15 -2.26795 0
      vertex 57.15 -2 3
    endloop
  endfacet
  facet normal -0.707107 -0.707107 0
    outer loop
      vertex 58.8821 -3 0
      vertex 58.8821 -3 3
      vertex 58.15 -2.26795 3
    endloop
  endfacet
  facet normal -0.707107 -0.707107 0
    outer loop
      vertex 58.15 -2.26795 0
      vertex 58.8821 -3 0
      vertex 58.15 -2.26795 3
    endloop
  endfacet
  facet normal -0.965926 -0.258819 0
    outer loop
      vertex 59.15 -4 3
      vertex 58.8821 -3 3
      vertex 59.15 -4 0
    endloop
  endfacet
  facet normal -0.965926 -0.258819 0
    outer loop
      vertex 59.15 -4 0
      vertex 58.8821 -3 3
      vertex 58.8821 -3 0
    endloop
  endfacet
  facet normal -0.965926 0.258819 0
    outer loop
      vertex 59.15 -4 3
      vertex 59.15 -4 0
      vertex 58.8821 -5 3
    endloop
  endfacet
  facet normal -0.965926 0.258819 0
    outer loop
      vertex 58.8821 -5 3
      vertex 59.15 -4 0
      vertex 58.8821 -5 0
    endloop
  endfacet
  facet normal -0.707107 0.707107 0
    outer loop
      vertex 58.8821 -5 3
      vertex 58.8821 -5 0
      vertex 58.15 -5.73205 3
    endloop
  endfacet
  facet normal -0.707107 0.707107 0
    outer loop
      vertex 58.15 -5.73205 3
      vertex 58.8821 -5 0
      vertex 58.15 -5.73205 0
    endloop
  endfacet
  facet normal -0.258819 0.965926 0
    outer loop
      vertex 58.15 -5.73205 3
      vertex 58.15 -5.73205 0
      vertex 57.15 -6 3
    endloop
  endfacet
  facet normal -0.258819 0.965926 0
    outer loop
      vertex 57.15 -6 3
      vertex 58.15 -5.73205 0
      vertex 57.15 -6 0
    endloop
  endfacet
  facet normal 0.258819 0.965926 0
    outer loop
      vertex 57.15 -6 3
      vertex 57.15 -6 0
      vertex 56.15 -5.73205 3
    endloop
  endfacet
  facet normal 0.258819 0.965926 0
    outer loop
      vertex 56.15 -5.73205 3
      vertex 57.15 -6 0
      vertex 56.15 -5.73205 0
    endloop
  endfacet
  facet normal 0.707107 0.707107 0
    outer loop
      vertex 56.15 -5.73205 3
      vertex 56.15 -5.73205 0
      vertex 55.4179 -5 3
    endloop
  endfacet
  facet normal 0.707107 0.707107 0
    outer loop
      vertex 55.4179 -5 3
      vertex 56.15 -5.73205 0
      vertex 55.4179 -5 0
    endloop
  endfacet
  facet normal 1 0 0
    outer loop
      vertex 58.675 6.525 0
      vertex 58.675 6.525 3
      vertex 58.675 3.525 3
    endloop
  endfacet
  facet normal 1 0 0
    outer loop
      vertex 58.675 3.525 0
      vertex 58.675 6.525 0
      vertex 58.675 3.525 3
    endloop
  endfacet
  facet normal 0 -1 0
    outer loop
      vertex 59.675 6.525 0
      vertex 59.675 6.525 3
      vertex 58.675 6.525 3
    endloop
  endfacet
  facet normal 0 -1 0
    outer loop
      vertex 58.675 6.525 0
      vertex 59.675 6.525 0
      vertex 58.675 6.525 3
    endloop
  endfacet
  facet normal 1 0 0
    outer loop
      vertex 59.675 12.525 0
      vertex 59.675 12.525 3
      vertex 59.675 6.525 3
    endloop
  endfacet
  facet normal 1 0 0
    outer loop
      vertex 59.675 6.525 0
      vertex 59.675 12.525 0
      vertex 59.675 6.525 3
    endloop
  endfacet
  facet normal 0 1 0
    outer loop
      vertex 59.675 12.525 3
      vertex 59.675 12.525 0
      vertex 58.675 12.525 3
    endloop
  endfacet
  facet normal 0 1 0
    outer loop
      vertex 58.675 12.525 3
      vertex 59.675 12.525 0
      vertex 58.675 12.525 0
    endloop
  endfacet
  facet normal 1 0 0
    outer loop
      vertex 58.675 15.525 0
      vertex 58.675 15.525 3
      vertex 58.675 12.525 3
    endloop
  endfacet
  facet normal 1 0 0
    outer loop
      vertex 58.675 12.525 0
      vertex 58.675 15.525 0
      vertex 58.675 12.525 3
    endloop
  endfacet
  facet normal 0 -1 0
    outer loop
      vertex 59.675 15.525 0
      vertex 59.675 15.525 3
      vertex 58.675 15.525 3
    endloop
  endfacet
  facet normal 0 -1 0
    outer loop
      vertex 58.675 15.525 0
      vertex 59.675 15.525 0
      vertex 58.675 15.525 3
    endloop
  endfacet
  facet normal 1 0 0
    outer loop
      vertex 59.675 16.525 0
      vertex 59.675 16.525 3
      vertex 59.675 15.525 3
    endloop
  endfacet
  facet normal 1 0 0
    outer loop
      vertex 59.675 15.525 0
      vertex 59.675 16.525 0
      vertex 59.675 15.525 3
    endloop
  endfacet
  facet normal 0 -1 0
    outer loop
      vertex 73.675 16.525 0
      vertex 73.675 16.525 3
      vertex 59.675 16.525 3
    endloop
  endfacet
  facet normal 0 -1 0
    outer loop
      vertex 59.675 16.525 0
      vertex 73.675 16.525 0
      vertex 59.675 16.525 3
    endloop
  endfacet
  facet normal -1 0 0
    outer loop
      vertex 73.675 16.525 3
      vertex 73.675 16.525 0
      vertex 73.675 15.525 3
    endloop
  endfacet
  facet normal -1 0 0
    outer loop
      vertex 73.675 15.525 3
      vertex 73.675 16.525 0
      vertex 73.675 15.525 0
    endloop
  endfacet
  facet normal 0 -1 0
    outer loop
      vertex 74.675 15.525 0
      vertex 74.675 15.525 3
      vertex 73.675 15.525 3
    endloop
  endfacet
  facet normal 0 -1 0
    outer loop
      vertex 73.675 15.525 0
      vertex 74.675 15.525 0
      vertex 73.675 15.525 3
    endloop
  endfacet
  facet normal -1 0 0
    outer loop
      vertex 74.675 15.525 3
      vertex 74.675 15.525 0
      vertex 74.675 12.525 3
    endloop
  endfacet
  facet normal -1 0 0
    outer loop
      vertex 74.675 12.525 3
      vertex 74.675 15.525 0
      vertex 74.675 12.525 0
    endloop
  endfacet
  facet normal 0 1 0
    outer loop
      vertex 74.675 12.525 3
      vertex 74.675 12.525 0
      vertex 73.675 12.525 3
    endloop
  endfacet
  facet normal 0 1 0
    outer loop
      vertex 73.675 12.525 3
      vertex 74.675 12.525 0
      vertex 73.675 12.525 0
    endloop
  endfacet
  facet normal -1 0 0
    outer loop
      vertex 73.675 12.525 3
      vertex 73.675 12.525 0
      vertex 73.675 6.525 3
    endloop
  endfacet
  facet normal -1 0 0
    outer loop
      vertex 73.675 6.525 3
      vertex 73.675 12.525 0
      vertex 73.675 6.525 0
    endloop
  endfacet
  facet normal 0 -1 0
    outer loop
      vertex 74.675 6.525 0
      vertex 74.675 6.525 3
      vertex 73.675 6.525 3
    endloop
  endfacet
  facet normal 0 -1 0
    outer loop
      vertex 73.675 6.525 0
      vertex 74.675 6.525 0
      vertex 73.675 6.525 3
    endloop
  endfacet
  facet normal -1 0 0
    outer loop
      vertex 74.675 6.525 3
      vertex 74.675 6.525 0
      vertex 74.675 3.525 3
    endloop
  endfacet
  facet normal -1 0 0
    outer loop
      vertex 74.675 3.525 3
      vertex 74.675 6.525 0
      vertex 74.675 3.525 0
    endloop
  endfacet
  facet normal 0 1 0
    outer loop
      vertex 74.675 3.525 3
      vertex 74.675 3.525 0
      vertex 73.675 3.525 3
    endloop
  endfacet
  facet normal 0 1 0
    outer loop
      vertex 73.675 3.525 3
      vertex 74.675 3.525 0
      vertex 73.675 3.525 0
    endloop
  endfacet
  facet normal -1 0 0
    outer loop
      vertex 73.675 3.525 3
      vertex 73.675 3.525 0
      vertex 73.675 2.525 3
    endloop
  endfacet
  facet normal -1 0 0
    outer loop
      vertex 73.675 2.525 3
      vertex 73.675 3.525 0
      vertex 73.675 2.525 0
    endloop
  endfacet
  facet normal 0 1 0
    outer loop
      vertex 73.675 2.525 3
      vertex 73.675 2.525 0
      vertex 59.675 2.525 3
    endloop
  endfacet
  facet normal 0 1 0
    outer loop
      vertex 59.675 2.525 3
      vertex 73.675 2.525 0
      vertex 59.675 2.525 0
    endloop
  endfacet
  facet normal 1 0 0
    outer loop
      vertex 59.675 3.525 0
      vertex 59.675 3.525 3
      vertex 59.675 2.525 3
    endloop
  endfacet
  facet normal 1 0 0
    outer loop
      vertex 59.675 2.525 0
      vertex 59.675 3.525 0
      vertex 59.675 2.525 3
    endloop
  endfacet
  facet normal 0 1 0
    outer loop
      vertex 59.675 3.525 3
      vertex 59.675 3.525 0
      vertex 58.675 3.525 3
    endloop
  endfacet
  facet normal 0 1 0
    outer loop
      vertex 58.675 3.525 3
      vertex 59.675 3.525 0
      vertex 58.675 3.525 0
    endloop
  endfacet
endsolid OpenSCAD_Model
